<svg xmlns="http://www.w3.org/2000/svg" viewBox="0 0 980 720" fill="none">
  <defs>
    <linearGradient id="bg" x1="96" y1="80" x2="880" y2="640" gradientUnits="userSpaceOnUse">
      <stop stop-color="#E9FBFA"/>
      <stop offset="0.52" stop-color="#F7FFFD"/>
      <stop offset="1" stop-color="#FFF2E9"/>
    </linearGradient>
    <linearGradient id="screen" x1="240" y1="180" x2="750" y2="530" gradientUnits="userSpaceOnUse">
      <stop stop-color="#EAF7F6"/>
      <stop offset="1" stop-color="#FFFFFF"/>
    </linearGradient>
    <linearGradient id="teal" x1="218" y1="160" x2="744" y2="160" gradientUnits="userSpaceOnUse">
      <stop stop-color="#2F8F91"/>
      <stop offset="1" stop-color="#5EBFBE"/>
    </linearGradient>
    <linearGradient id="warm" x1="134" y1="146" x2="842" y2="580" gradientUnits="userSpaceOnUse">
      <stop stop-color="#E5A18E" stop-opacity="0.34"/>
      <stop offset="1" stop-color="#E5A18E" stop-opacity="0.05"/>
    </linearGradient>
    <filter id="blur40" x="0" y="0" width="980" height="720" filterUnits="userSpaceOnUse" color-interpolation-filters="sRGB">
      <feGaussianBlur stdDeviation="18"/>
    </filter>
    <filter id="shadow" x="140" y="110" width="720" height="500" filterUnits="userSpaceOnUse" color-interpolation-filters="sRGB">
      <feDropShadow dx="0" dy="16" stdDeviation="16" flood-color="#0D4F52" flood-opacity="0.12"/>
    </filter>
  </defs>

  <rect width="980" height="720" rx="36" fill="url(#bg)"/>
  <ellipse cx="708" cy="320" rx="250" ry="170" fill="url(#warm)" filter="url(#blur40)"/>
  <ellipse cx="290" cy="360" rx="240" ry="180" fill="#CFEFEB" fill-opacity="0.6" filter="url(#blur40)"/>

  <g filter="url(#shadow)">
    <rect x="196" y="132" width="546" height="392" rx="28" fill="url(#screen)"/>
    <rect x="196" y="132" width="546" height="48" rx="28" fill="url(#teal)"/>
    <rect x="196" y="172" width="546" height="10" fill="#1B6A6D" fill-opacity="0.42"/>
    <rect x="236" y="198" width="205" height="280" rx="18" fill="#FFFFFF" fill-opacity="0.72"/>
    <rect x="466" y="198" width="236" height="280" rx="18" fill="#FFFFFF" fill-opacity="0.72"/>
  </g>

  <rect x="278" y="226" width="282" height="176" rx="14" fill="#FFFFFF" stroke="#B8E3DF"/>
  <rect x="296" y="247" width="246" height="12" rx="6" fill="#DCEEEB"/>
  <rect x="296" y="274" width="246" height="10" rx="5" fill="#E8F3F2"/>
  <rect x="296" y="295" width="246" height="10" rx="5" fill="#E8F3F2"/>
  <rect x="296" y="316" width="246" height="10" rx="5" fill="#E8F3F2"/>
  <rect x="296" y="337" width="246" height="10" rx="5" fill="#E8F3F2"/>

  <g opacity="0.95">
    <rect x="318" y="272" width="36" height="16" rx="5" fill="#E6F5F3"/>
    <rect x="360" y="272" width="36" height="16" rx="5" fill="#D2ECE8"/>
    <rect x="402" y="272" width="36" height="16" rx="5" fill="#A7DDD8"/>
    <rect x="444" y="272" width="36" height="16" rx="5" fill="#78C9C4"/>
    <rect x="486" y="272" width="36" height="16" rx="5" fill="#47AFAF"/>

    <rect x="318" y="294" width="36" height="16" rx="5" fill="#E6F5F3"/>
    <rect x="360" y="294" width="36" height="16" rx="5" fill="#D2ECE8"/>
    <rect x="402" y="294" width="36" height="16" rx="5" fill="#A7DDD8"/>
    <rect x="444" y="294" width="36" height="16" rx="5" fill="#78C9C4"/>
    <rect x="486" y="294" width="36" height="16" rx="5" fill="#47AFAF"/>

    <rect x="318" y="316" width="36" height="16" rx="5" fill="#E6F5F3"/>
    <rect x="360" y="316" width="36" height="16" rx="5" fill="#D2ECE8"/>
    <rect x="402" y="316" width="36" height="16" rx="5" fill="#A7DDD8"/>
    <rect x="444" y="316" width="36" height="16" rx="5" fill="#78C9C4"/>
    <rect x="486" y="316" width="36" height="16" rx="5" fill="#47AFAF"/>

    <rect x="318" y="338" width="36" height="16" rx="5" fill="#E6F5F3"/>
    <rect x="360" y="338" width="36" height="16" rx="5" fill="#D2ECE8"/>
    <rect x="402" y="338" width="36" height="16" rx="5" fill="#A7DDD8"/>
    <rect x="444" y="338" width="36" height="16" rx="5" fill="#78C9C4"/>
    <rect x="486" y="338" width="36" height="16" rx="5" fill="#47AFAF"/>

    <rect x="318" y="360" width="36" height="16" rx="5" fill="#E6F5F3"/>
    <rect x="360" y="360" width="36" height="16" rx="5" fill="#D2ECE8"/>
    <rect x="402" y="360" width="36" height="16" rx="5" fill="#A7DDD8"/>
    <rect x="444" y="360" width="36" height="16" rx="5" fill="#78C9C4"/>
    <rect x="486" y="360" width="36" height="16" rx="5" fill="#47AFAF"/>
  </g>

  <path d="M248 438C246 414 260 398 284 398H370C392 398 406 415 404 436C400 475 392 498 384 505H250C244 498 248 461 248 438Z" fill="#FFFFFF" stroke="#C8E8E4"/>
  <path d="M402 435C400 412 414 396 438 396H525C547 396 561 413 559 434C555 473 547 496 539 503H405C399 496 403 459 402 435Z" fill="#FFFFFF" stroke="#C8E8E4"/>

  <path d="M198 482C214 451 230 430 250 422" stroke="#94CBC6" stroke-width="8" stroke-linecap="round"/>
  <path d="M782 498C766 464 748 442 722 430" stroke="#94CBC6" stroke-width="8" stroke-linecap="round"/>

  <g>
    <path d="M286 418C286 388 301 362 324 345C341 333 352 328 363 328C374 328 387 333 397 341C417 357 430 383 430 416V516H286V418Z" fill="#E47E67"/>
    <circle cx="348" cy="316" r="34" fill="#3C2C39"/>
    <path d="M322 332C320 362 322 399 338 426" stroke="#2C1F2F" stroke-width="14" stroke-linecap="round"/>
    <path d="M366 336C371 363 373 403 371 441" stroke="#2C1F2F" stroke-width="14" stroke-linecap="round"/>
    <path d="M398 395C414 397 425 405 433 417" stroke="#E47E67" stroke-width="18" stroke-linecap="round"/>
    <path d="M318 398C301 398 287 410 275 428" stroke="#E47E67" stroke-width="18" stroke-linecap="round"/>
    <rect x="318" y="430" width="78" height="74" rx="12" fill="#5EC1BE"/>
    <rect x="338" y="430" width="12" height="74" fill="#2D8C8E"/>
    <path d="M294 518C294 494 310 481 329 481H381C401 481 416 495 416 517V526H294V518Z" fill="#8BC6C5"/>
    <path d="M338 392L308 518" stroke="#2A7071" stroke-width="8" stroke-linecap="round"/>
  </g>

  <g>
    <path d="M636 412C636 383 648 359 670 345C686 335 698 330 712 330C725 330 738 335 750 344C770 359 782 384 782 414V515H636V412Z" fill="#2EA6A1"/>
    <circle cx="708" cy="318" r="34" fill="#EAB08F"/>
    <path d="M682 334C676 364 678 399 694 426" stroke="#AD6A52" stroke-width="14" stroke-linecap="round"/>
    <path d="M728 336C734 363 736 403 733 441" stroke="#AD6A52" stroke-width="14" stroke-linecap="round"/>
    <path d="M748 396C765 399 777 407 786 420" stroke="#2EA6A1" stroke-width="18" stroke-linecap="round"/>
    <path d="M668 398C652 399 639 411 627 429" stroke="#2EA6A1" stroke-width="18" stroke-linecap="round"/>
    <rect x="670" y="431" width="80" height="72" rx="12" fill="#66CFCB"/>
    <rect x="690" y="431" width="12" height="72" fill="#1E7E7B"/>
    <path d="M647 517C647 495 663 481 681 481H734C754 481 769 495 769 517V526H647V517Z" fill="#5BBAB6"/>
    <path d="M732 396L760 518" stroke="#1E7E7B" stroke-width="8" stroke-linecap="round"/>
  </g>

  <g>
    <rect x="112" y="174" width="90" height="66" rx="16" fill="#F7FFFF" stroke="#CFE7E5"/>
    <rect x="140" y="197" width="34" height="8" rx="4" fill="#F1B67B"/>
    <rect x="131" y="209" width="52" height="6" rx="3" fill="#D9ECE9"/>

    <rect x="804" y="170" width="72" height="58" rx="16" fill="#F7FFFF" stroke="#CFE7E5"/>
    <rect x="825" y="188" width="28" height="8" rx="4" fill="#52B9B4"/>
    <rect x="818" y="201" width="42" height="6" rx="3" fill="#D9ECE9"/>

    <rect x="830" y="298" width="96" height="86" rx="16" fill="#F7FFFF" stroke="#CFE7E5"/>
    <rect x="854" y="321" width="48" height="8" rx="4" fill="#52B9B4"/>
    <rect x="846" y="334" width="62" height="6" rx="3" fill="#D9ECE9"/>
    <rect x="846" y="345" width="44" height="6" rx="3" fill="#D9ECE9"/>
  </g>

  <g opacity="0.9">
    <rect x="100" y="334" width="50" height="50" rx="14" fill="#F8FFFE" stroke="#D7EAEA"/>
    <rect x="846" y="122" width="50" height="50" rx="14" fill="#F8FFFE" stroke="#D7EAEA"/>
    <rect x="162" y="104" width="50" height="50" rx="14" fill="#F8FFFE" stroke="#D7EAEA"/>
  </g>

  <path d="M178 574C266 548 383 541 490 541C600 541 711 548 810 577" stroke="#D6F0EE" stroke-width="20" stroke-linecap="round" opacity="0.8"/>
  <path d="M136 592C251 561 377 554 490 554C602 554 735 562 846 595" stroke="#EFD8CB" stroke-width="16" stroke-linecap="round" opacity="0.32"/>
</svg>
